<?xml version="1.0" standalone="no"?>
<!DOCTYPE svg PUBLIC "-//W3C//DTD SVG 20010904//EN"
 "http://www.w3.org/TR/2001/REC-SVG-20010904/DTD/svg10.dtd">
<svg version="1.0" xmlns="http://www.w3.org/2000/svg"
 width="360.000000pt" height="360.000000pt" viewBox="0 0 360.000000 360.000000"
 preserveAspectRatio="xMidYMid meet">
<metadata>
Created by potrace 1.14, written by Peter Selinger 2001-2017
</metadata>
<g transform="translate(0.000000,360.000000) scale(0.100000,-0.100000)"
fill="#000000" stroke="none">
<path d="M1579 3588 c-8 -8 -35 -13 -62 -12 -26 0 -50 -3 -53 -8 -3 -4 -10 -6
-15 -3 -5 4 -9 0 -9 -7 0 -10 -2 -10 -9 1 -6 9 -11 10 -15 2 -4 -6 -11 -9 -16
-6 -5 3 -11 1 -15 -5 -4 -7 -13 -6 -27 1 -15 8 -19 8 -14 0 4 -6 2 -11 -4 -11
-6 0 -9 -3 -7 -7 3 -5 -12 -7 -34 -7 -21 1 -36 -2 -33 -7 5 -8 -13 -12 -58
-12 -10 0 -15 -4 -11 -10 4 -6 -2 -8 -15 -5 -13 4 -20 2 -19 -6 1 -6 -6 -10
-15 -8 -10 2 -18 -3 -18 -9 0 -7 -3 -9 -7 -6 -3 4 -15 -1 -26 -10 -15 -13 -18
-14 -12 -3 7 12 6 13 -7 3 -8 -7 -18 -10 -21 -6 -4 3 -7 0 -7 -7 0 -7 -3 -10
-7 -7 -3 4 -12 -1 -20 -11 -9 -10 -11 -11 -7 -2 7 12 5 13 -8 3 -8 -7 -19 -9
-24 -5 -4 4 -3 0 4 -9 10 -14 9 -16 -5 -16 -49 0 -58 -3 -43 -13 12 -8 10 -10
-10 -11 -14 -1 -28 -1 -32 0 -5 0 -8 -6 -8 -15 0 -11 -6 -14 -22 -8 -20 6 -21
5 -10 -9 11 -12 10 -15 -5 -13 -10 0 -17 -5 -15 -12 1 -8 -2 -11 -8 -7 -5 3
-23 -3 -39 -14 -15 -11 -31 -18 -35 -14 -3 3 -6 -1 -6 -10 0 -10 -6 -17 -14
-17 -8 0 -21 -9 -29 -20 -8 -11 -17 -17 -20 -13 -4 3 -7 1 -7 -6 0 -7 -4 -10
-9 -6 -5 3 -13 -4 -16 -16 -4 -11 -9 -18 -12 -16 -6 7 -49 -36 -46 -45 2 -5 0
-7 -5 -6 -16 5 -53 -24 -48 -38 3 -7 2 -13 -2 -13 -20 3 -33 -2 -27 -11 3 -5
-2 -10 -11 -10 -10 0 -14 -3 -11 -7 4 -3 -5 -15 -20 -25 -17 -11 -22 -18 -13
-19 8 0 5 -4 -8 -10 -13 -5 -21 -13 -18 -17 3 -5 -9 -19 -25 -33 -17 -13 -35
-35 -40 -49 -8 -20 -12 -22 -19 -10 -6 8 -10 10 -10 4 0 -5 6 -16 13 -23 6 -8
8 -11 2 -9 -10 6 -27 -7 -36 -27 -2 -5 -6 -9 -10 -8 -3 1 -10 -7 -17 -17 -10
-17 -9 -18 6 -13 11 3 9 0 -6 -11 -12 -10 -20 -22 -17 -27 4 -5 -2 -9 -12 -9
-15 0 -16 -2 -3 -10 13 -9 7 -14 -12 -11 -5 0 -9 -4 -9 -9 -1 -6 -2 -16 -3
-22 -1 -7 -7 -12 -13 -11 -6 1 -10 -5 -9 -15 2 -9 -4 -23 -13 -30 -12 -10 -13
-12 -1 -6 11 5 10 1 -3 -13 -10 -12 -20 -28 -21 -37 -1 -8 -10 -24 -20 -35
-10 -11 -15 -24 -12 -30 3 -5 -1 -16 -9 -24 -18 -19 -20 -31 -3 -21 14 9 -10
-26 -27 -38 -6 -5 -5 -8 3 -8 10 0 10 -4 -2 -15 -8 -9 -13 -22 -10 -30 4 -8 1
-15 -7 -15 -7 0 -9 -3 -6 -7 4 -3 1 -13 -6 -21 -10 -13 -9 -14 3 -7 12 6 13 5
3 -6 -7 -7 -13 -21 -13 -32 0 -10 -4 -16 -8 -13 -5 3 -9 -1 -9 -9 0 -8 5 -11
11 -8 6 4 5 -1 -2 -10 -8 -9 -11 -21 -7 -27 3 -5 2 -10 -4 -10 -5 0 -8 -13 -6
-30 4 -28 -9 -43 -17 -20 -2 5 -4 -14 -5 -43 -2 -93 -6 -116 -16 -110 -5 3 -4
-4 2 -15 8 -15 8 -23 0 -28 -8 -4 -7 -9 2 -15 9 -5 10 -9 2 -9 -8 0 -12 -44
-12 -151 -1 -84 2 -148 7 -145 5 3 9 -1 9 -9 0 -8 -4 -12 -8 -10 -10 7 -5 -22
6 -32 4 -4 5 -2 0 6 -5 8 -4 12 1 9 5 -4 9 -40 8 -82 0 -42 4 -76 8 -76 5 0 6
6 2 13 -4 6 -3 8 1 4 14 -12 15 -37 2 -37 -8 0 -8 -3 1 -9 7 -4 12 -12 11 -17
-4 -23 2 -55 9 -50 5 3 8 -5 7 -17 -3 -31 5 -48 19 -40 8 4 8 3 0 -6 -9 -10
-9 -19 2 -39 7 -14 11 -29 8 -34 -3 -4 0 -8 7 -8 6 0 9 -8 6 -20 -3 -11 -2
-20 2 -20 11 0 32 -50 26 -61 -4 -5 -1 -9 5 -9 7 0 10 -6 8 -12 -3 -7 2 -19 9
-27 8 -8 12 -23 10 -33 -4 -15 -3 -17 8 -8 11 10 13 8 10 -9 -3 -14 1 -21 13
-22 10 0 12 -3 5 -6 -13 -5 -9 -11 23 -46 6 -6 9 -20 6 -30 -3 -11 0 -17 9
-15 7 2 14 -3 15 -9 1 -7 2 -18 3 -24 0 -6 7 -9 15 -6 9 4 12 -2 10 -18 -1
-17 2 -22 12 -18 10 4 12 0 8 -11 -3 -9 -1 -16 6 -16 6 0 8 -4 5 -10 -3 -5 0
-10 7 -10 13 0 29 -24 44 -63 4 -10 12 -16 19 -13 9 3 11 -2 7 -17 -3 -12 -2
-19 3 -15 9 8 35 -14 28 -24 -2 -5 3 -8 11 -8 14 0 20 -12 17 -32 0 -5 6 -8
15 -8 8 0 12 -4 9 -10 -3 -5 2 -10 11 -10 10 0 15 -3 11 -6 -3 -4 0 -13 8 -20
17 -17 29 -18 19 -2 -4 7 -3 8 4 4 6 -4 9 -13 5 -21 -3 -10 1 -15 12 -15 9 0
14 -3 12 -7 -3 -5 1 -13 8 -20 11 -10 15 -10 18 0 4 8 6 8 6 -2 1 -7 12 -24
25 -36 14 -13 22 -25 19 -29 -3 -3 4 -3 17 -1 15 3 20 0 17 -10 -6 -15 19 -29
35 -18 7 3 8 1 4 -5 -3 -6 3 -16 14 -22 30 -16 60 -47 52 -55 -4 -3 0 -3 9 0
8 3 25 -4 37 -15 14 -13 22 -16 22 -8 1 7 6 3 13 -10 7 -12 17 -19 21 -15 4 4
12 0 17 -10 6 -9 21 -17 34 -17 16 0 25 -6 25 -16 0 -14 3 -14 15 -4 13 11 14
10 9 -5 -5 -12 -4 -16 4 -11 6 3 14 1 17 -5 4 -5 14 -8 23 -4 9 3 13 3 9 -1
-8 -8 38 -34 59 -34 8 0 14 -5 14 -11 0 -5 5 -7 11 -4 5 4 19 -1 29 -10 11
-10 26 -15 36 -11 11 4 15 2 11 -6 -3 -9 7 -14 31 -15 19 -1 39 -8 43 -15 7
-10 9 -10 9 2 0 12 2 12 9 2 4 -7 22 -14 39 -14 17 -1 29 -5 26 -10 -4 -7 43
-13 69 -9 4 0 7 -3 7 -7 0 -4 19 -9 42 -11 23 -1 48 -7 54 -12 7 -6 15 -6 18
-1 4 7 28 8 56 3 3 -1 -2 -6 -10 -11 -12 -8 -11 -10 5 -7 11 1 25 6 32 10 6 4
15 2 19 -4 4 -8 9 -7 15 2 5 8 9 9 9 3 0 -17 260 -19 260 -2 0 8 3 9 8 3 10
-15 52 -18 52 -4 0 8 4 8 15 -1 11 -9 15 -9 15 -1 0 7 5 9 10 6 6 -3 10 -2 10
2 0 5 21 8 48 8 32 -1 51 4 60 14 8 9 11 10 7 3 -8 -16 7 -16 24 1 11 10 12 9
6 -3 -8 -13 -7 -13 8 -1 9 7 17 10 17 5 0 -4 5 -3 12 4 8 8 17 8 31 1 14 -8
18 -8 13 0 -4 6 -2 11 4 11 6 0 9 4 6 9 -3 4 6 6 19 3 14 -2 32 1 40 8 8 6 19
9 25 5 5 -3 10 -1 10 5 0 6 4 9 9 5 5 -3 13 0 16 6 4 5 13 8 21 5 7 -3 16 -1
19 5 4 5 11 7 16 4 5 -4 9 -2 9 3 0 9 27 19 68 28 7 1 20 8 29 15 8 7 22 14
30 15 8 2 24 11 36 21 11 10 17 12 13 5 -7 -11 -4 -11 12 -1 12 7 18 17 15 22
-3 5 0 8 8 5 8 -3 37 10 65 28 28 18 55 30 59 26 3 -4 5 0 3 8 -2 8 3 14 10
13 6 -2 12 2 12 8 0 6 7 9 14 6 11 -4 13 -1 9 10 -4 11 -3 14 5 9 7 -4 15 -1
18 8 3 9 10 14 14 11 5 -3 13 3 19 12 6 10 11 14 11 10 0 -5 17 9 37 30 21 21
40 37 42 35 3 -2 8 5 12 15 4 10 8 13 8 6 1 -7 11 -3 24 10 13 12 22 25 20 30
-2 4 3 7 12 7 9 0 13 5 10 10 -3 6 1 10 10 10 10 0 13 5 9 12 -5 8 -2 9 10 5
10 -4 15 -3 11 3 -3 6 -1 10 5 10 6 0 8 5 5 10 -3 6 -1 10 5 10 6 0 8 5 5 10
-4 6 -3 9 2 8 4 -2 18 7 31 20 12 12 19 22 15 22 -4 0 3 7 15 16 12 8 22 21
22 27 0 7 9 18 20 25 12 7 18 17 15 22 -3 6 2 10 12 10 15 0 16 2 3 10 -13 8
-12 10 4 10 12 0 16 5 12 15 -3 9 0 15 10 15 10 0 14 6 11 14 -4 11 -1 13 10
9 10 -4 14 -2 9 5 -3 6 -2 13 4 17 6 4 8 11 5 16 -4 5 2 9 12 9 15 0 16 2 3
10 -11 7 -11 10 -2 10 7 0 10 5 6 12 -4 7 -3 8 4 4 6 -3 16 3 22 14 6 11 8 20
4 20 -4 0 1 9 10 19 10 11 15 25 11 30 -3 6 1 11 9 11 9 0 16 3 15 8 -2 14 13
52 20 48 4 -3 8 4 9 15 4 43 6 48 19 53 7 3 13 10 13 16 0 6 -6 8 -12 4 -14
-9 10 26 27 38 6 5 4 8 -5 8 -12 0 -12 2 -2 8 7 5 15 22 18 38 3 16 10 32 16
35 7 4 5 9 -3 12 -11 4 -11 6 -1 6 7 1 10 6 7 11 -3 6 -2 10 3 10 5 0 8 10 8
23 -1 12 2 27 6 33 5 7 10 26 11 43 1 17 6 31 11 31 5 0 2 8 -5 17 -10 11 -10
14 -1 9 7 -4 12 -2 13 6 3 44 6 67 13 92 4 18 3 25 -4 21 -15 -10 -12 12 5 29
9 9 11 17 5 21 -5 3 -10 12 -10 18 0 7 4 6 10 -3 5 -9 9 46 9 150 0 95 -4 169
-10 176 -11 13 -8 51 4 72 6 8 4 12 -5 10 -10 -2 -13 11 -12 50 0 28 -3 52 -8
52 -5 0 -6 -5 -2 -12 4 -7 3 -8 -4 -4 -9 5 -9 13 -2 27 6 10 7 19 2 19 -9 0
-11 8 -14 60 -1 16 -6 26 -11 23 -6 -4 -8 0 -4 9 3 9 -2 26 -10 39 -13 17 -13
20 -2 14 11 -6 12 -5 2 6 -7 7 -13 21 -13 31 0 10 -3 18 -7 18 -5 0 -9 12 -10
27 0 15 -6 29 -12 31 -9 3 -9 8 0 19 7 8 8 13 3 11 -5 -2 -11 2 -12 7 -11 30
-24 45 -35 38 -7 -4 -7 0 2 10 11 13 11 17 1 17 -8 0 -10 3 -7 7 4 3 -1 15
-10 26 -10 10 -18 24 -18 30 -1 22 -45 107 -56 107 -6 0 -9 6 -6 13 3 8 -3 20
-14 27 -13 10 -15 17 -8 26 7 9 5 11 -8 10 -10 0 -17 5 -15 12 1 6 -3 12 -9
12 -5 0 -7 5 -4 10 3 6 0 10 -8 10 -8 0 -18 11 -21 25 -4 14 -11 23 -16 20 -6
-3 -10 4 -10 15 0 15 -5 20 -14 17 -10 -4 -12 0 -8 15 3 12 1 19 -4 16 -11 -7
-35 17 -27 26 4 3 -1 6 -11 6 -9 0 -14 5 -11 10 3 6 1 10 -5 10 -6 0 -15 12
-21 26 -5 15 -12 24 -15 21 -3 -3 -29 18 -56 46 -28 29 -55 51 -59 50 -5 -2
-9 1 -9 5 0 14 -36 52 -43 46 -3 -3 -11 4 -17 16 -7 13 -17 19 -26 16 -8 -3
-12 -2 -9 4 3 5 -4 14 -15 20 -28 15 -60 47 -53 53 3 3 -5 3 -18 0 -17 -5 -20
-3 -14 7 6 10 4 12 -8 7 -11 -4 -17 -1 -17 8 0 8 -9 15 -20 15 -11 0 -20 5
-20 11 0 5 -4 7 -10 4 -5 -3 -10 -1 -10 5 0 6 -4 8 -10 5 -5 -3 -10 1 -10 10
0 10 -5 13 -12 9 -6 -4 -17 1 -25 11 -7 11 -13 15 -13 11 0 -5 -7 -3 -15 4 -9
7 -18 10 -21 7 -4 -3 -21 5 -39 18 -17 14 -39 25 -48 25 -10 0 -17 4 -17 8 0
5 -7 9 -15 10 -8 1 -22 3 -30 4 -8 1 -15 5 -15 9 0 7 -31 19 -69 24 -13 2 -28
10 -32 17 -7 10 -9 10 -9 -2 0 -12 -2 -12 -9 -2 -4 7 -22 14 -39 14 -17 1 -29
4 -27 8 3 4 -5 8 -18 8 -12 1 -31 3 -42 6 -11 2 -24 5 -28 5 -5 1 -6 4 -4 9 3
4 -14 7 -36 6 -23 0 -50 3 -59 8 -11 5 -18 5 -18 -1 0 -11 -29 -8 -38 5 -13
17 -31 14 -26 -4 5 -15 4 -15 -8 -1 -18 21 -298 28 -298 7 0 -8 -3 -9 -8 -3
-10 15 -52 18 -52 4 0 -9 -3 -9 -14 0 -11 9 -17 9 -27 -1z"/>
</g>
</svg>
